<svg width="138" height="138" viewBox="0 0 138 138" fill="none" xmlns="http://www.w3.org/2000/svg">
<path d="M102.476 19.5115C101.862 19.2355 101.429 19.1199 101.176 19.1647C100.916 19.2116 100.612 19.532 100.266 20.1258L96.185 27.1211C95.8595 27.6791 95.732 28.0918 95.8024 28.3593C95.8698 28.6319 96.1833 28.9588 96.743 29.3402L96.5728 29.632L92.1268 27.0385L92.297 26.7468C92.8934 27.0535 93.3377 27.1857 93.6299 27.1435C93.917 27.0983 94.2129 26.8146 94.5175 26.2924L98.925 18.7366C99.0265 18.5625 99.079 18.4079 99.0824 18.2727C99.0777 18.1396 98.983 18.002 98.7983 17.8599C98.6895 17.7759 98.5727 17.694 98.4477 17.6142C98.3175 17.5315 98.0733 17.3856 97.715 17.1765C96.3175 16.3613 95.3058 15.9256 94.68 15.8692C94.0542 15.8129 93.2347 16.1239 92.2215 16.8022L91.8222 16.5693L94.1802 14.2913L102.642 19.2274L102.476 19.5115Z" fill="#333333"/>
<path d="M89.166 16.752C88.8285 17.882 88.1857 18.7291 87.2378 19.2934C86.2826 19.8616 85.24 19.9769 84.1099 19.6393C82.9856 19.3035 82.1646 18.6562 81.6469 17.6974C81.1292 16.7387 81.0536 15.6461 81.42 14.4195C81.7575 13.2895 82.4087 12.414 83.3736 11.793C84.3384 11.172 85.3887 11.0311 86.5244 11.3704C87.6147 11.6961 88.4178 12.3721 88.9339 13.3983C89.4499 14.4246 89.5273 15.5425 89.166 16.752ZM84.5011 19.1995C84.9497 19.3335 85.3828 19.3021 85.8003 19.1052C86.5226 18.7581 87.0728 17.9514 87.4511 16.685C87.753 15.6743 87.8074 14.6638 87.6144 13.6536C87.4157 12.6417 86.9103 12.0145 86.0983 11.7719C85.4623 11.5819 84.8866 11.7285 84.3711 12.2116C83.85 12.693 83.4478 13.4079 83.1646 14.3562C82.8711 15.3386 82.8132 16.3295 82.9909 17.3289C83.1687 18.3283 83.672 18.9518 84.5011 19.1995Z" fill="#333333"/>
<path d="M77.9784 9.97782C77.4311 9.97194 77.0621 10.0311 76.8713 10.1554C76.6799 10.2855 76.5612 10.5865 76.515 11.0584L76.1248 15.0486C76.0677 15.6325 76.0831 16.0538 76.1709 16.3125C76.2523 16.5765 76.4375 16.7227 76.7265 16.7509C76.7855 16.7567 76.866 16.7556 76.968 16.7478C77.0635 16.7452 77.1655 16.7373 77.274 16.7241L77.2454 17.0161C76.8977 17.1011 76.5408 17.1883 76.1748 17.2776C75.8088 17.3668 75.5554 17.4314 75.4145 17.4712C75.1086 17.5544 74.7925 17.6515 74.466 17.7625C74.4247 17.7585 74.4026 17.7414 74.3996 17.7113C74.3906 17.6807 74.3908 17.6182 74.4 17.5238L74.5419 16.0728C74.1131 16.5609 73.7103 16.9353 73.3334 17.1962C72.9507 17.4565 72.5706 17.5682 72.1931 17.5313C71.8923 17.5019 71.6564 17.3865 71.4856 17.1852C71.3141 16.9898 71.2417 16.7564 71.2682 16.4851C71.2919 16.2433 71.3855 16.047 71.5491 15.8963C71.7068 15.745 71.8948 15.68 72.113 15.7013C72.3371 15.7232 72.5541 15.8487 72.764 16.0776C72.9679 16.306 73.1348 16.4265 73.2645 16.4392C73.471 16.4594 73.741 16.3161 74.0747 16.0093C74.4079 15.7084 74.5917 15.381 74.6263 15.0271L75.0165 11.0369C75.0661 10.5297 74.9828 10.1642 74.7665 9.94061C74.5496 9.7229 74.1663 9.59311 73.6166 9.55127L73.6451 9.2593L78.0069 9.68585L77.9784 9.97782Z" fill="#333333"/>
<path d="M64.6163 17.6559C63.7839 17.73 63.0291 17.5058 62.3519 16.983C61.6751 16.4662 61.2896 15.6795 61.1955 14.6228L66.8181 14.1217C66.637 12.7575 66.2382 11.7875 65.6216 11.2117C65.0051 10.636 64.3131 10.3823 63.5457 10.4507C62.9259 10.506 62.4179 10.7149 62.0219 11.0774C61.6258 11.44 61.2743 11.9354 60.9673 12.5637L60.6479 12.485C60.8231 11.7138 61.2159 10.9797 61.8261 10.2827C62.4304 9.58624 63.2136 9.19514 64.1758 9.10938C65.2856 9.01046 66.1819 9.35303 66.8646 10.1371C67.5414 10.9216 67.9285 11.8599 68.0258 12.952C68.1316 14.1385 67.8716 15.194 67.246 16.1184C66.6203 17.0429 65.7438 17.5554 64.6163 17.6559ZM65.0722 16.9637C65.7452 16.9037 66.2322 16.5598 66.5332 15.9321C66.6937 15.5965 66.7937 15.183 66.8332 14.6916L63.0966 15.0246C63.2141 15.6091 63.3655 16.0389 63.5506 16.3139C63.8862 16.8076 64.3934 17.0242 65.0722 16.9637Z" fill="#333333"/>
<path d="M55.3973 10.5501C54.9765 10.7459 54.7127 10.9228 54.6059 11.081C54.4412 11.3231 54.4462 11.6867 54.6211 12.1717L56.1796 16.4953C56.3283 16.9079 56.4815 17.1582 56.6392 17.2463C56.7914 17.3363 56.9929 17.3361 57.2438 17.2457C57.3609 17.2035 57.4481 17.1657 57.5054 17.1325C57.5571 17.1012 57.617 17.0576 57.685 17.0016L57.7905 17.2943L57.2607 17.712C57.0694 17.8629 56.7598 18.1225 56.3319 18.491C55.9041 18.8594 55.6762 19.0486 55.6483 19.0587C55.6204 19.0687 55.5987 19.0608 55.5831 19.0349C55.5674 19.0091 55.5456 18.9571 55.5174 18.8791L55.1105 17.7501C54.7394 18.4508 54.3873 18.9683 54.0542 19.3025C53.7231 19.6424 53.3457 19.8887 52.922 20.0414C52.3477 20.2484 51.8202 20.218 51.3395 19.9504C51.0847 19.8028 50.8334 19.5689 50.5857 19.2488C50.3239 19.8156 50.0758 20.2547 49.8415 20.5659C49.4365 21.1025 48.958 21.4703 48.406 21.6692C47.5084 21.9928 46.7774 21.8436 46.2131 21.2218C45.8915 20.8715 45.57 20.2504 45.2484 19.3583L43.9974 15.8877C43.8547 15.4919 43.6709 15.2526 43.4458 15.17C43.2171 15.0949 42.8662 15.1174 42.3929 15.2376L42.3145 15.0202L46.0862 13.6607L46.1706 13.8948C45.7017 14.1143 45.419 14.3264 45.3228 14.5312C45.2209 14.738 45.2534 15.0728 45.4202 15.5355L46.7194 19.1399C46.9144 19.6807 47.1166 20.0583 47.3261 20.2725C47.6972 20.6553 48.1838 20.7382 48.7859 20.5212C49.1483 20.3905 49.4647 20.1411 49.7351 19.7727C49.8912 19.559 50.0645 19.2445 50.255 18.8293L48.7116 14.5475C48.5488 14.0959 48.3472 13.7812 48.1066 13.6033C47.8606 13.4274 47.478 13.4235 46.9591 13.5917L46.8807 13.3743L50.7193 11.9906L50.7977 12.2081C50.2921 12.4659 50.001 12.7157 49.9244 12.9575C49.8478 13.1993 49.9431 13.691 50.2104 14.4325L51.0545 16.7741C51.3639 17.6327 51.6327 18.2036 51.8608 18.4868C52.2417 18.9668 52.7305 19.0993 53.327 18.8843C53.6671 18.7617 53.9675 18.5463 54.2281 18.2382C54.4907 17.9357 54.6932 17.5886 54.8356 17.1971L53.1866 12.6226C53.0339 12.1989 52.8559 11.9323 52.6527 11.8229C52.4439 11.7155 52.0903 11.7484 51.5921 11.9217L51.5138 11.7042L55.3189 10.3326L55.3973 10.5501Z" fill="#333333"/>
<path d="M38.0392 31.8634C38.207 32.0552 38.2845 32.2788 38.2716 32.5341C38.2588 32.7894 38.1542 33.0029 37.9579 33.1746C37.7661 33.3424 37.5428 33.4157 37.2881 33.3945C37.0327 33.3816 36.8192 33.2771 36.6475 33.0808C36.4797 32.889 36.4045 32.6635 36.4218 32.4043C36.4386 32.1534 36.5428 31.944 36.7346 31.7763C36.9309 31.6046 37.1545 31.5271 37.4054 31.5439C37.6601 31.5651 37.8714 31.6716 38.0392 31.8634ZM31.5032 22.6637C31.0649 23.1258 30.8341 23.4695 30.8106 23.6947C30.7911 23.9244 31.0096 24.3002 31.4661 24.8221L34.2581 28.0136C34.5117 28.3035 34.7074 28.4867 34.8451 28.5631C35.072 28.6875 35.2924 28.656 35.5066 28.4687C35.5556 28.4258 35.6008 28.3784 35.642 28.3265C35.6788 28.2786 35.7814 28.1258 35.9498 27.8683L36.1313 28.0757L35.9255 28.4211C35.3674 29.3582 34.991 30.026 34.7963 30.4246C34.7183 30.5874 34.6614 30.6844 34.6257 30.7156C34.5895 30.6922 34.5557 30.6627 34.5245 30.627L30.322 25.823C29.8772 25.3145 29.538 25.0482 29.3044 25.0242C29.0663 25.0041 28.7153 25.1655 28.2514 25.5083L28.0876 25.3209L31.3393 22.4763L31.5032 22.6637Z" fill="#333333"/>
<path d="M24.2082 31.8296C23.7961 31.7019 23.4174 31.6947 23.0723 31.808C22.7281 31.9296 22.428 32.1535 22.1717 32.4798C21.7764 32.9831 21.6891 33.6078 21.9096 34.3537C22.1312 35.1079 22.6894 35.8364 23.5843 36.5391C24.4419 37.2126 25.2292 37.5295 25.9462 37.4897C26.6595 37.4545 27.2083 37.1923 27.5927 36.7029C27.8635 36.3579 28.0034 35.9591 28.0123 35.5064C28.0258 35.0574 27.93 34.7524 27.7249 34.5913L24.2082 31.8296ZM21.7802 26.3286C21.4641 26.7887 21.3395 27.1392 21.4065 27.3802C21.4698 27.6258 21.6716 27.8822 22.0118 28.1494L28.7237 33.4202C29.0779 33.6984 29.3388 33.8316 29.5062 33.8199C29.6746 33.8166 29.8522 33.696 30.0388 33.4583C30.0791 33.407 30.1152 33.3563 30.1472 33.306C30.1754 33.2604 30.2155 33.1901 30.2674 33.0953L30.4981 33.2764L30.1933 34.1108C30.1797 34.1378 29.9726 34.7325 29.5721 35.895C29.5538 35.9183 29.5294 35.9254 29.4988 35.9165C29.4691 35.9158 29.4403 35.9045 29.4124 35.8825L28.4685 35.1413C28.5346 35.6905 28.5507 36.1402 28.5168 36.4904C28.4484 37.1149 28.2403 37.6485 27.8926 38.0913C27.3875 38.7345 26.6787 39.0709 25.7664 39.1004C24.855 39.1383 23.9239 38.7839 22.9731 38.0372C22.0409 37.3051 21.4145 36.3611 21.094 35.2052C20.7698 34.0539 20.939 33.0564 21.6015 32.2128C21.8065 31.9518 22.0166 31.7513 22.2319 31.6115C22.5641 31.39 22.9595 31.256 23.4181 31.2092L21.1319 29.4139C20.6612 29.0442 20.3118 28.8942 20.0838 28.9638C19.8558 29.0334 19.52 29.3123 19.0764 29.8004L18.8317 29.6082L21.5495 26.1474L21.7802 26.3286Z" fill="#333333"/>
<path d="M19.0921 41.2454L18.9619 41.5083C18.296 41.3304 17.7498 41.2648 17.3232 41.3114C16.5443 41.3884 15.9772 41.7854 15.622 42.5023C15.4246 42.9005 15.3783 43.2678 15.4828 43.604C15.5901 43.9482 15.8189 44.2071 16.1694 44.3808C16.3925 44.4913 16.6404 44.5315 16.9133 44.5013C17.1862 44.4712 17.5037 44.3375 17.866 44.1003L18.8178 43.4608C19.492 42.9813 20.0832 42.6757 20.5916 42.544C21.1 42.4123 21.5959 42.4662 22.0791 42.7057C22.6738 43.0004 23.0571 43.4549 23.229 44.0691C23.4008 44.6834 23.3275 45.3118 23.0091 45.9543C22.8697 46.2358 22.664 46.5175 22.392 46.7994C22.1174 47.0866 21.9695 47.2515 21.9485 47.294C21.9011 47.3895 21.8802 47.4652 21.8857 47.5208C21.8912 47.5764 21.9153 47.6347 21.9579 47.6955L21.8632 47.8866L19.6132 46.8412L19.7355 46.5943C20.3033 46.7433 20.7752 46.7986 21.1514 46.7601C21.8456 46.694 22.3466 46.3503 22.6545 45.729C22.8387 45.3573 22.8692 45.0087 22.7461 44.6831C22.6231 44.3575 22.4075 44.1185 22.0995 43.9658C21.611 43.7238 20.994 43.8744 20.2485 44.4178L19.162 45.189C17.9855 46.0148 16.9884 46.2251 16.1706 45.8199C15.544 45.5094 15.1487 45.0192 14.9846 44.3492C14.8179 43.6846 14.9226 42.9726 15.2989 42.2132C15.4568 41.8946 15.6888 41.5598 15.995 41.2089C16.3012 40.8579 16.4727 40.6453 16.5096 40.5709C16.5411 40.5072 16.5449 40.4396 16.5207 40.3681C16.5019 40.2993 16.4673 40.2358 16.4167 40.1777L16.5193 39.9706L19.0921 41.2454Z" fill="#333333"/>
<path d="M19.4015 54.5194L13.8953 53.0876C13.5053 52.9862 13.1785 52.9594 12.915 53.0073C12.4239 53.1061 12.1045 53.4395 11.9569 54.0073C11.8555 54.3973 11.8853 54.8123 12.0465 55.2523C12.1347 55.5018 12.2766 55.7683 12.4723 56.0519L17.1871 57.2779C17.6287 57.3927 17.9407 57.382 18.1231 57.2457C18.3055 57.1094 18.4782 56.7869 18.6411 56.2782L18.925 56.352L18.2024 59.1309L12.1455 57.556C11.7555 57.4545 11.468 57.4533 11.2831 57.5521C11.1024 57.6583 10.9618 57.9401 10.8612 58.3977L10.6203 58.3351C10.6163 57.9972 10.6107 57.7478 10.6036 57.5867C10.6022 57.4271 10.5897 57.1575 10.5659 56.7778C10.5531 56.6153 10.5148 56.2563 10.451 55.7008C10.4585 55.6721 10.4773 55.6586 10.5075 55.6604C10.5319 55.6606 10.5613 55.6652 10.5957 55.6741L11.9809 56.0343C11.6177 55.5235 11.3661 55.0784 11.2259 54.699C11.0085 54.122 10.9707 53.561 11.1124 53.0162C11.2421 52.5171 11.5422 52.0931 12.0127 51.7439C12.4789 51.3875 13.125 51.3167 13.9509 51.5314L18.4161 52.6925C18.875 52.8118 19.2072 52.7941 19.4128 52.6394C19.5431 52.5385 19.682 52.2869 19.8296 51.8843L20.0705 51.947L19.4015 54.5194Z" fill="#333333"/>
<path d="M9.23348 62.8948C9.27917 63.3567 9.35901 63.6642 9.47301 63.8172C9.64703 64.0527 9.99182 64.1681 10.5074 64.1634L15.1032 64.1216C15.5417 64.1176 15.8286 64.0557 15.9638 63.936C16.0991 63.8221 16.1655 63.6319 16.1631 63.3652C16.1619 63.2407 16.1552 63.146 16.1427 63.0809C16.1303 63.0217 16.1089 62.9508 16.0785 62.8681L16.3897 62.8653L16.6088 63.5034C16.688 63.7338 16.8307 64.1118 17.037 64.6374C17.2433 65.163 17.3466 65.4406 17.3468 65.4702C17.3471 65.4999 17.3324 65.5178 17.3029 65.524C17.2733 65.5302 17.217 65.5336 17.134 65.5344L15.934 65.5453C16.4727 66.1272 16.8447 66.6305 17.0501 67.0554C17.2614 67.4802 17.3691 67.9178 17.3732 68.3681C17.3787 68.9785 17.1758 69.4664 16.7642 69.8316C16.5407 70.0233 16.237 70.1832 15.8529 70.3111C16.3014 70.7456 16.6337 71.1248 16.85 71.4488C17.2226 72.0085 17.4115 72.5817 17.4169 73.1683C17.4256 74.1225 17.0432 74.7631 16.2698 75.0901C15.8329 75.2778 15.1404 75.376 14.1922 75.3846L10.5031 75.4182C10.0824 75.422 9.7958 75.5165 9.64339 75.7016C9.49696 75.8926 9.40225 76.2313 9.35926 76.7177L9.12814 76.7198L9.09166 72.7107L9.34056 72.7084C9.39266 73.2236 9.49944 73.5604 9.66091 73.719C9.82242 73.8835 10.1491 73.9635 10.641 73.959L14.4723 73.9241C15.0471 73.9189 15.4703 73.8528 15.7417 73.7259C16.2257 73.5022 16.4648 73.0703 16.4589 72.4303C16.4554 72.0451 16.3245 71.664 16.0663 71.2871C15.9161 71.0691 15.6766 70.8017 15.3478 70.4846L10.7964 70.526C10.3164 70.5304 9.95271 70.6167 9.70533 70.7849C9.45799 70.959 9.32791 71.3188 9.3151 71.8641L9.08397 71.8662L9.04685 67.786L9.27797 67.7839C9.3542 68.3463 9.49377 68.7036 9.69666 68.8558C9.89955 69.0081 10.3951 69.0806 11.1833 69.0734L13.6723 69.0508C14.5849 69.0425 15.2125 68.9775 15.5552 68.8559C16.1342 68.655 16.4208 68.2375 16.415 67.6034C16.4117 67.2419 16.3077 66.8873 16.1031 66.5395C15.9043 66.1916 15.6437 65.8858 15.3213 65.622L10.4588 65.6663C10.0085 65.6704 9.69803 65.7502 9.52758 65.9059C9.35717 66.0675 9.27141 66.412 9.27028 66.9395L9.03916 66.9416L9.00235 62.8969L9.23348 62.8948Z" fill="#333333"/>
<path d="M21.7389 89.8586C21.9129 90.2547 21.9859 90.6564 21.9576 91.0637C21.9391 91.3308 21.8735 91.6088 21.761 91.8977L24.3491 90.7606C24.68 90.6152 24.8912 90.4771 24.9826 90.3463C25.0764 90.2209 25.0626 90.0199 24.941 89.7432C24.9124 89.678 24.8846 89.6223 24.8577 89.5758C24.8309 89.5294 24.7723 89.4256 24.6821 89.2646L24.9507 89.1466L25.4149 89.7388C25.5873 89.9544 25.7624 90.1688 25.9402 90.3819C26.118 90.5951 26.28 90.7796 26.4261 90.9355C26.4914 91.0104 26.6061 91.1315 26.7703 91.2989L26.7755 91.3549L25.9138 91.7141C25.6021 91.8445 25.2796 91.9798 24.9462 92.1198C24.6183 92.2574 24.2943 92.3965 23.9742 92.5372L17.3177 95.4424C16.965 95.5974 16.7372 95.7493 16.6343 95.8981C16.5314 96.0469 16.5621 96.3084 16.7266 96.6828C16.7529 96.7425 16.7791 96.8022 16.8053 96.8619C16.837 96.9192 16.8713 96.9753 16.9084 97.0302L16.6398 97.1482C16.6147 97.1204 16.3062 96.7866 15.7144 96.1469L14.6728 95.0801L14.721 94.9909L15.722 94.5511C15.2576 94.3927 14.9059 94.2332 14.6671 94.0728C14.2489 93.784 13.9254 93.3791 13.6965 92.8582C13.2913 91.9358 13.3177 91.0309 13.7757 90.1435C14.2416 89.2591 14.9439 88.6107 15.8826 88.1983C17.06 87.681 18.2193 87.5794 19.3607 87.8935C20.5099 88.2107 21.3026 88.8657 21.7389 89.8586ZM14.9045 93.2208C15.0904 93.644 15.3654 93.931 15.7294 94.0818C16.0935 94.2325 16.3867 94.2591 16.6092 94.1613L20.1007 92.6272C20.806 92.3173 21.219 91.9093 21.3397 91.4031C21.4682 90.9 21.4538 90.4694 21.2965 90.1113C20.9961 89.4277 20.4586 89.0294 19.684 88.9166C18.9149 88.8014 18.0881 88.9381 17.2037 89.3267C16.3302 89.7106 15.6398 90.2534 15.1325 90.9553C14.6277 91.6626 14.5517 92.4178 14.9045 93.2208Z" fill="#333333"/>
<path d="M21.6083 99.0839C22.5596 98.3867 23.5833 98.0992 24.6796 98.2216C25.7842 98.3451 26.6851 98.8825 27.3823 99.8338C28.0759 100.78 28.3398 101.792 28.1739 102.869C28.0079 103.946 27.4087 104.862 26.3762 105.619C25.425 106.316 24.3773 106.621 23.2332 106.534C22.0891 106.447 21.1667 105.925 20.4661 104.969C19.7934 104.051 19.5611 103.028 19.7691 101.898C19.9771 100.768 20.5902 99.8301 21.6083 99.0839ZM26.8049 99.9483C26.5281 99.5707 26.1639 99.3343 25.7121 99.2393C24.9268 99.0801 24.0012 99.3911 22.9352 100.172C22.0844 100.796 21.431 101.569 20.9752 102.491C20.5228 103.417 20.5472 104.223 21.0482 104.906C21.4406 105.441 21.988 105.672 22.6906 105.598C23.3966 105.529 24.1488 105.202 24.947 104.617C25.774 104.01 26.4182 103.255 26.8798 102.351C27.3414 101.447 27.3164 100.646 26.8049 99.9483Z" fill="#333333"/>
<path d="M26.6311 111.454C27.0701 111.791 27.4177 111.966 27.6739 111.978C27.9341 111.986 28.2322 111.811 28.5682 111.452L34.5006 105.108C34.7678 104.822 34.9282 104.603 34.9817 104.451C35.0652 104.188 34.9749 103.933 34.7109 103.686C34.6503 103.629 34.5771 103.573 34.4914 103.517C34.41 103.465 34.303 103.402 34.1705 103.327L34.3709 103.112C35.101 103.503 35.9987 103.953 37.064 104.463C37.0943 104.491 37.0994 104.52 37.0795 104.55C37.0638 104.584 37.0155 104.644 36.9346 104.731L29.6542 112.516C29.302 112.892 29.1382 113.198 29.1628 113.432C29.1915 113.661 29.3951 113.982 29.7736 114.392L29.6036 114.574L26.4611 111.635L26.6311 111.454Z" fill="#333333"/>
<path d="M35.7375 114.372C36.3695 113.377 37.2183 112.736 38.2838 112.451C39.3576 112.164 40.3923 112.336 41.388 112.968C42.3787 113.597 42.9929 114.443 43.2305 115.506C43.4681 116.57 43.2439 117.642 42.5579 118.723C41.9259 119.718 41.0613 120.384 39.964 120.719C38.8667 121.055 37.8177 120.905 36.8169 120.27C35.8562 119.66 35.267 118.791 35.0493 117.663C34.8317 116.535 35.061 115.438 35.7375 114.372ZM40.892 113.285C40.4967 113.034 40.0714 112.947 39.6161 113.023C38.8267 113.16 38.0779 113.787 37.3697 114.903C36.8044 115.794 36.4773 116.751 36.3885 117.776C36.3048 118.804 36.6206 119.545 37.3361 119.999C37.8965 120.355 38.4904 120.37 39.1178 120.045C39.7501 119.724 40.3314 119.145 40.8618 118.309C41.4112 117.444 41.7363 116.506 41.8369 115.496C41.9375 114.486 41.6226 113.749 40.892 113.285Z" fill="#333333"/>
<path d="M44.6631 123.933C45.1881 124.087 45.5594 124.13 45.7767 124.063C45.9963 123.989 46.1924 123.732 46.365 123.29L47.8251 119.557C48.0388 119.01 48.1385 118.6 48.1243 118.328C48.1177 118.051 47.9792 117.86 47.7088 117.755C47.6536 117.733 47.5759 117.712 47.4755 117.692C47.3829 117.669 47.2826 117.649 47.1746 117.632L47.2815 117.359C47.6392 117.371 48.0064 117.384 48.3829 117.398C48.7594 117.411 49.0208 117.418 49.1672 117.418C49.4841 117.421 49.8148 117.414 50.1591 117.396C50.1978 117.411 50.2144 117.433 50.2092 117.463C50.2094 117.495 50.1923 117.555 50.1577 117.643L49.6268 119.001C50.1721 118.648 50.6616 118.397 51.0951 118.248C51.5342 118.102 51.9304 118.098 52.2836 118.236C52.5651 118.346 52.7607 118.521 52.8704 118.761C52.9823 118.996 52.9886 119.24 52.8893 119.494C52.8008 119.72 52.6574 119.884 52.459 119.984C52.2661 120.087 52.0675 120.099 51.8633 120.019C51.6536 119.937 51.4788 119.757 51.3391 119.48C51.2049 119.205 51.0771 119.043 50.9557 118.996C50.7625 118.92 50.4636 118.985 50.0591 119.189C49.6568 119.388 49.3908 119.653 49.2613 119.984L47.8013 123.718C47.6157 124.193 47.5966 124.567 47.744 124.841C47.8935 125.11 48.2271 125.339 48.7447 125.529L48.6379 125.802L44.5562 124.206L44.6631 123.933Z" fill="#333333"/>
<path d="M63.418 126.389L63.7109 126.405C63.8124 127.086 63.9692 127.614 64.1814 127.986C64.5616 128.671 65.1512 129.033 65.9502 129.074C66.3941 129.097 66.7496 128.994 67.0166 128.764C67.2898 128.529 67.4364 128.216 67.4565 127.826C67.4693 127.577 67.4077 127.334 67.2716 127.095C67.1355 126.857 66.8866 126.618 66.525 126.38L65.56 125.761C64.8521 125.333 64.3367 124.912 64.0138 124.497C63.6909 124.083 63.5434 123.607 63.5711 123.068C63.6052 122.405 63.87 121.873 64.3654 121.471C64.8608 121.069 65.4666 120.887 66.1827 120.924C66.4964 120.94 66.8366 121.017 67.2034 121.154C67.5761 121.292 67.7861 121.362 67.8335 121.365C67.94 121.37 68.0177 121.359 68.0666 121.332C68.1155 121.305 68.1593 121.26 68.1982 121.197L68.4113 121.208L68.346 123.688L68.0707 123.674C67.9819 123.093 67.8451 122.638 67.6603 122.308C67.3238 121.698 66.8093 121.374 66.1169 121.339C65.7026 121.317 65.3705 121.428 65.1207 121.67C64.8708 121.913 64.7371 122.205 64.7194 122.549C64.6914 123.093 65.0748 123.6 65.8696 124.068L67.0091 124.758C68.2344 125.51 68.8236 126.341 68.7767 127.253C68.7408 127.951 68.448 128.509 67.8984 128.925C67.3547 129.343 66.6597 129.529 65.8133 129.486C65.4582 129.467 65.0588 129.388 64.6151 129.246C64.1714 129.105 63.9081 129.032 63.8252 129.027C63.7542 129.024 63.6907 129.047 63.6347 129.098C63.579 129.142 63.5345 129.199 63.5012 129.269L63.2704 129.257L63.418 126.389Z" fill="#333333"/>
<path d="M73.9884 117.715C73.9574 117.462 74.0189 117.233 74.173 117.029C74.3271 116.825 74.5335 116.707 74.7923 116.676C75.0453 116.645 75.2712 116.709 75.47 116.87C75.674 117.024 75.7919 117.231 75.8237 117.489C75.8547 117.742 75.7903 117.971 75.6303 118.176C75.4755 118.374 75.2716 118.489 75.0186 118.52C74.7598 118.551 74.5314 118.49 74.3332 118.335C74.1344 118.174 74.0194 117.968 73.9884 117.715ZM74.2266 128.997C74.8488 128.861 75.2328 128.707 75.3788 128.533C75.524 128.354 75.5544 127.921 75.4699 127.233L74.9534 123.024C74.9065 122.641 74.8475 122.38 74.7765 122.239C74.6587 122.009 74.4586 121.911 74.1763 121.946C74.1116 121.954 74.0476 121.968 73.9843 121.987C73.9269 122.006 73.7562 122.075 73.4722 122.193L73.4387 121.92L73.8029 121.75C74.7912 121.288 75.4778 120.947 75.8627 120.727C76.0188 120.636 76.1203 120.588 76.1674 120.582C76.1842 120.622 76.1955 120.665 76.2013 120.712L76.9787 127.047C77.061 127.718 77.192 128.129 77.3718 128.28C77.5574 128.43 77.9384 128.494 78.5148 128.471L78.5451 128.718L74.2569 129.244L74.2266 128.997Z" fill="#333333"/>
<path d="M85.2891 118.705L85.4637 119.321L83.7191 119.815L85.099 124.746C85.2219 125.18 85.352 125.497 85.4891 125.698C85.7376 126.053 86.0613 126.174 86.4604 126.061C86.6657 126.002 86.8287 125.904 86.9494 125.765C87.0759 125.624 87.2061 125.421 87.3402 125.155L87.6159 125.28L87.5005 125.59C87.3172 126.073 87.0837 126.444 86.7999 126.704C86.5161 126.963 86.2202 127.136 85.9123 127.223C85.2395 127.414 84.6985 127.244 84.2893 126.713C84.066 126.426 83.8727 125.994 83.7093 125.418L82.2395 120.235L81.3073 120.499C81.2739 120.49 81.2463 120.48 81.2243 120.468C81.2081 120.454 81.1959 120.433 81.1878 120.404C81.1716 120.347 81.1709 120.301 81.1856 120.266C81.2044 120.224 81.2661 120.126 81.3706 119.973C81.6718 119.537 81.8797 119.194 81.9941 118.946C82.1127 118.691 82.3712 118.039 82.7697 116.989C82.8438 116.968 82.8882 116.962 82.9028 116.97C82.9231 116.977 82.9438 117.017 82.9648 117.091L83.5615 119.195L85.2891 118.705Z" fill="#333333"/>
<path d="M101.154 114.324C100.718 114.894 100.392 115.416 100.178 115.892C99.7697 116.808 99.7538 117.543 100.131 118.097C100.434 118.542 100.805 118.771 101.242 118.781C101.526 118.788 101.786 118.712 102.021 118.552C102.345 118.332 102.592 118.031 102.762 117.65C102.938 117.265 102.93 116.933 102.74 116.654L101.154 114.324ZM99.1677 119.494C98.6842 118.784 98.6358 117.949 99.0227 116.99C99.2733 116.39 99.9005 115.378 100.904 113.957L100.479 113.332C100.139 112.832 99.853 112.518 99.6217 112.389C99.2316 112.174 98.7745 112.245 98.2503 112.602C98.0005 112.772 97.8062 112.997 97.6676 113.278C97.5323 113.564 97.543 113.822 97.6998 114.052C97.7398 114.111 97.8204 114.203 97.9416 114.328C98.0595 114.449 98.1318 114.528 98.1584 114.568C98.3452 114.842 98.3846 115.095 98.2767 115.326C98.2172 115.46 98.1164 115.575 97.9743 115.672C97.7539 115.822 97.5365 115.866 97.3222 115.804C97.1046 115.737 96.9357 115.615 96.8157 115.439C96.5822 115.096 96.5494 114.595 96.7173 113.936C96.8867 113.268 97.3805 112.656 98.1986 112.099C99.149 111.452 100.003 111.322 100.762 111.709C101.173 111.924 101.599 112.355 102.039 113.001L104.045 115.948C104.238 116.232 104.391 116.415 104.504 116.496C104.698 116.644 104.895 116.649 105.096 116.512C105.209 116.436 105.29 116.355 105.34 116.271C105.39 116.187 105.461 116.017 105.552 115.761L105.812 116.143C105.786 116.441 105.723 116.713 105.625 116.959C105.478 117.331 105.262 117.615 104.978 117.808C104.645 118.035 104.329 118.092 104.03 117.98C103.736 117.864 103.481 117.662 103.262 117.373C103.11 117.95 102.955 118.407 102.797 118.744C102.532 119.312 102.198 119.733 101.796 120.006C101.375 120.293 100.91 120.395 100.401 120.311C99.889 120.222 99.4779 119.95 99.1677 119.494Z" fill="#333333"/>
<path d="M109.878 113.808C110.15 113.432 110.294 113.149 110.31 112.959C110.336 112.667 110.155 112.352 109.766 112.014L106.299 108.997C105.968 108.709 105.712 108.565 105.531 108.565C105.355 108.561 105.179 108.659 105.004 108.86C104.922 108.954 104.864 109.029 104.83 109.086C104.8 109.139 104.769 109.206 104.737 109.288L104.502 109.084L104.762 108.461C104.855 108.236 104.999 107.859 105.193 107.328C105.388 106.798 105.494 106.522 105.514 106.5C105.533 106.477 105.556 106.474 105.582 106.489C105.609 106.504 105.653 106.538 105.716 106.593L106.621 107.38C106.604 106.588 106.659 105.964 106.787 105.51C106.911 105.052 107.12 104.653 107.416 104.313C107.817 103.853 108.292 103.622 108.843 103.622C109.137 103.627 109.47 103.709 109.843 103.867C109.795 103.245 109.798 102.741 109.851 102.355C109.943 101.689 110.182 101.134 110.567 100.692C111.193 99.972 111.904 99.7462 112.7 100.014C113.152 100.164 113.735 100.549 114.45 101.172L117.234 103.593C117.551 103.87 117.828 103.989 118.065 103.952C118.301 103.906 118.597 103.715 118.952 103.38L119.126 103.531L116.494 106.556L116.306 106.393C116.609 105.972 116.753 105.65 116.737 105.424C116.725 105.194 116.534 104.917 116.163 104.594L113.272 102.079C112.838 101.702 112.478 101.471 112.191 101.386C111.68 101.232 111.215 101.397 110.795 101.88C110.542 102.17 110.387 102.542 110.33 102.996C110.298 103.258 110.3 103.617 110.336 104.073L113.769 107.06C114.132 107.375 114.461 107.552 114.758 107.59C115.058 107.624 115.394 107.441 115.766 107.041L115.94 107.193L113.262 110.271L113.087 110.12C113.403 109.648 113.536 109.288 113.485 109.04C113.434 108.791 113.111 108.408 112.516 107.891L110.639 106.257C109.95 105.658 109.437 105.29 109.1 105.154C108.534 104.92 108.042 105.043 107.626 105.521C107.389 105.794 107.231 106.128 107.154 106.524C107.072 106.916 107.064 107.318 107.13 107.729L110.799 110.921C111.139 111.217 111.424 111.363 111.655 111.36C111.889 111.352 112.182 111.151 112.533 110.757L112.707 110.908L110.052 113.96L109.878 113.808Z" fill="#333333"/>
<path d="M115.66 92.2185C116.03 91.4694 116.615 90.9418 117.414 90.636C118.208 90.3274 119.08 90.4082 120.031 90.8782L117.53 95.9389C118.789 96.4949 119.825 96.6597 120.637 96.4332C121.45 96.2068 122.027 95.7482 122.368 95.0575C122.644 94.4996 122.73 93.9572 122.627 93.4303C122.524 92.9033 122.284 92.3452 121.908 91.7559L122.141 91.5243C122.708 92.0755 123.13 92.7932 123.407 93.6771C123.687 94.5557 123.613 95.4281 123.185 96.2941C122.691 97.293 121.932 97.8796 120.907 98.054C119.885 98.2231 118.882 98.0648 117.9 97.5791C116.832 97.0513 116.066 96.2797 115.603 95.2641C115.139 94.2485 115.159 93.2333 115.66 92.2185ZM116.013 92.9682C115.714 93.5739 115.754 94.1688 116.133 94.7527C116.336 95.0645 116.637 95.3653 117.036 95.6549L118.698 92.2918C118.138 92.0876 117.692 91.993 117.361 92.0078C116.764 92.0371 116.315 92.3572 116.013 92.9682Z" fill="#333333"/>
<path d="M119.701 81.671L120.317 81.8473L119.817 83.5907L124.735 85.018C125.168 85.142 125.506 85.1989 125.749 85.1885C126.182 85.1643 126.455 84.9529 126.569 84.5541C126.628 84.349 126.63 84.1585 126.576 83.9826C126.523 83.801 126.419 83.5832 126.264 83.3291L126.515 83.1608L126.718 83.4222C127.032 83.8328 127.224 84.2269 127.294 84.6047C127.365 84.9824 127.356 85.3252 127.268 85.6328C127.075 86.3051 126.646 86.6752 125.979 86.7431C125.617 86.7811 125.148 86.7176 124.572 86.5528L119.394 85.0691L119.127 86.0006C119.102 86.0242 119.078 86.0421 119.056 86.0543C119.036 86.0608 119.011 86.0599 118.983 86.0518C118.926 86.0354 118.886 86.0118 118.864 85.9808C118.838 85.9426 118.788 85.8387 118.713 85.6694C118.501 85.1832 118.32 84.8261 118.169 84.5981C118.015 84.3627 117.597 83.7991 116.915 82.9072C116.936 82.8331 116.954 82.792 116.969 82.7839C116.985 82.7701 117.03 82.7738 117.105 82.795L119.207 83.3973L119.701 81.671Z" fill="#333333"/>
<path d="M128.946 74.9396C129.539 75.0179 130.063 75.3052 130.518 75.8016C130.972 76.2979 131.279 76.8076 131.437 77.3306L131.062 77.4516C130.819 76.8456 130.527 76.4125 130.185 76.1521C129.843 75.8859 129.549 75.7365 129.302 75.7039C129.22 75.6931 129.164 75.7125 129.133 75.7623C129.103 75.8121 129.084 75.8664 129.076 75.9251L129.06 76.5237C129.027 76.7705 128.918 76.9863 128.732 77.171C128.54 77.3549 128.292 77.4267 127.986 77.3864C127.751 77.3554 127.533 77.2399 127.333 77.0401C127.132 76.8402 127.057 76.5464 127.108 76.1586C127.157 75.7885 127.348 75.4759 127.68 75.2209C128.007 74.9651 128.429 74.8713 128.946 74.9396Z" fill="#333333"/>
<path d="M120.044 59.4597C119.909 58.7314 119.982 58.0698 120.263 57.475C120.538 56.8755 120.899 56.5341 121.348 56.4507C121.54 56.415 121.733 56.4484 121.927 56.5511C122.115 56.6548 122.235 56.8464 122.287 57.1261C122.325 57.3301 122.289 57.5237 122.178 57.707C122.066 57.8845 121.883 58.0331 121.628 58.1528L121.228 58.3356C120.933 58.4687 120.739 58.6404 120.645 58.8507C120.559 59.0657 120.545 59.3305 120.603 59.6452C120.726 60.3094 121.122 60.8176 121.79 61.1696C122.452 61.5169 123.263 61.6013 124.225 61.4227C125.104 61.2592 125.847 60.8619 126.453 60.2309C127.058 59.5941 127.281 58.8474 127.122 57.9909C127.01 57.3849 126.711 56.8828 126.228 56.4844C125.95 56.2586 125.533 56.0227 124.975 55.7768L125.078 55.5045C125.839 55.7067 126.457 55.9534 126.933 56.2447C127.845 56.8047 128.387 57.5479 128.559 58.4744C128.728 59.3833 128.519 60.254 127.932 61.0864C127.346 61.9187 126.438 62.4491 125.208 62.6775C124.002 62.9016 122.894 62.7127 121.884 62.1107C120.874 61.5087 120.261 60.625 120.044 59.4597Z" fill="#333333"/>
<path d="M122.483 51.4366C121.395 51.8913 120.332 51.9306 119.295 51.5547C118.25 51.1755 117.501 50.4418 117.046 49.3536C116.594 48.2709 116.574 47.2256 116.988 46.2177C117.402 45.2098 118.2 44.4591 119.381 43.9655C120.469 43.5109 121.559 43.4601 122.651 43.8132C123.742 44.1664 124.517 44.8898 124.974 45.9834C125.412 47.0333 125.398 48.083 124.931 49.1324C124.464 50.1819 123.648 50.9499 122.483 51.4366ZM117.634 49.3777C117.815 49.8097 118.113 50.1248 118.53 50.3232C119.256 50.6621 120.229 50.5768 121.448 50.0673C122.422 49.6606 123.238 49.0625 123.897 48.2732C124.555 47.4784 124.72 46.69 124.393 45.9081C124.137 45.2956 123.659 44.943 122.959 44.8503C122.256 44.752 121.448 44.8937 120.535 45.2753C119.589 45.6706 118.786 46.2535 118.125 47.0241C117.464 47.7948 117.301 48.5793 117.634 49.3777Z" fill="#333333"/>
<path d="M120.596 38.1872C120.31 37.8741 120.056 37.6942 119.834 37.6474C119.605 37.5992 119.267 37.7322 118.821 38.0465L115.138 40.6442C114.828 40.8629 114.631 41.0456 114.546 41.1926C114.427 41.4144 114.468 41.6682 114.67 41.9539C114.7 41.9975 114.735 42.0418 114.774 42.0868C114.81 42.127 114.856 42.1775 114.914 42.2385L114.66 42.4178C114.461 42.2603 113.98 41.8964 113.215 41.3262L112.508 40.8022C112.484 40.7683 112.483 40.7404 112.504 40.7185C112.521 40.6917 112.552 40.6629 112.595 40.6322L113.663 39.879C112.932 39.7272 112.401 39.5801 112.068 39.4375C111.564 39.2272 111.169 38.9186 110.882 38.5118C110.65 38.1824 110.532 37.8156 110.53 37.4111C110.529 36.6285 111.001 35.9041 111.945 35.238L115.338 32.8452C115.686 32.5992 115.889 32.3514 115.945 32.1016C116.001 31.8519 115.915 31.5606 115.687 31.2279L115.891 31.0844L118.079 34.1864L117.875 34.3298C117.577 34.0104 117.306 33.8318 117.062 33.7938C116.813 33.7593 116.441 33.9162 115.947 34.2646L112.845 36.4525C112.429 36.7462 112.14 37.0663 111.978 37.4125C111.811 37.7622 111.875 38.1453 112.168 38.5618C112.37 38.8475 112.672 39.0698 113.074 39.2286C113.301 39.3147 113.636 39.398 114.077 39.4784L118.145 36.6091C118.493 36.3631 118.674 36.12 118.685 35.8796C118.692 35.6427 118.583 35.3537 118.357 35.0127L118.56 34.8692L120.799 38.0438L120.596 38.1872Z" fill="#333333"/>
<path d="M110.423 29.2784L110.209 29.0782C110.57 28.4913 110.789 27.9868 110.867 27.5648C111.017 26.7965 110.799 26.1394 110.214 25.5936C109.889 25.2903 109.551 25.1406 109.198 25.1444C108.838 25.1484 108.524 25.2935 108.257 25.5794C108.088 25.7614 107.978 25.9874 107.929 26.2575C107.879 26.5276 107.916 26.8701 108.04 27.2852L108.379 28.3804C108.646 29.1637 108.769 29.8178 108.749 30.3426C108.73 30.8674 108.536 31.327 108.168 31.7213C107.715 32.2065 107.17 32.4434 106.532 32.4319C105.894 32.4204 105.313 32.1701 104.789 31.6808C104.559 31.4665 104.348 31.1887 104.156 30.8473C103.96 30.5019 103.844 30.313 103.81 30.2806C103.732 30.2078 103.665 30.1661 103.61 30.1554C103.555 30.1447 103.493 30.1511 103.422 30.1745L103.266 30.0289L104.913 28.1732L105.114 28.3612C104.809 28.8623 104.621 29.2987 104.55 29.6701C104.414 30.3541 104.599 30.9326 105.106 31.4057C105.41 31.6887 105.735 31.8179 106.082 31.7934C106.429 31.7688 106.72 31.6308 106.955 31.3795C107.327 30.9809 107.359 30.3466 107.052 29.4767L106.625 28.2146C106.171 26.8508 106.256 25.8352 106.878 25.168C107.355 24.6567 107.938 24.4185 108.627 24.4534C109.312 24.4842 109.964 24.7888 110.584 25.367C110.844 25.6096 111.098 25.9278 111.346 26.3218C111.595 26.7157 111.749 26.941 111.81 26.9976C111.862 27.0461 111.926 27.0691 112.001 27.0665C112.072 27.0682 112.143 27.0532 112.213 27.0214L112.382 27.1791L110.423 29.2784Z" fill="#333333"/>
<path d="M39.2408 17.3665C38.8083 17.7019 38.556 17.9776 38.4837 18.1935C38.4147 18.4144 38.5087 18.724 38.7657 19.1224L40.9396 22.4912C41.2577 22.9841 41.5315 23.3047 41.7611 23.4528C41.9889 23.6091 42.2248 23.6085 42.4688 23.451C42.5186 23.4189 42.581 23.368 42.656 23.2985C42.7293 23.2371 42.8043 23.1675 42.8811 23.0898L43.0401 23.3363C42.8206 23.619 42.5951 23.9091 42.3638 24.2065C42.1325 24.5038 41.9741 24.7119 41.8885 24.8306C41.7005 25.0859 41.5132 25.3584 41.3264 25.6482C41.2915 25.6707 41.2636 25.6711 41.2425 25.6495C41.2165 25.631 41.1778 25.5819 41.1264 25.5022L40.3359 24.2772C40.3032 24.9261 40.2202 25.4698 40.0871 25.9084C39.949 26.3501 39.7206 26.6739 39.4019 26.8795C39.1479 27.0434 38.8915 27.0996 38.6325 27.048C38.3768 27.0015 38.175 26.8637 38.0272 26.6346C37.8954 26.4304 37.8468 26.2185 37.8813 25.9987C37.9109 25.7821 38.0178 25.6144 38.202 25.4955C38.3912 25.3734 38.6392 25.3369 38.9458 25.3858C39.2475 25.438 39.4532 25.4287 39.5627 25.358C39.737 25.2456 39.8596 24.9655 39.9304 24.5178C40.0044 24.075 39.945 23.7043 39.7522 23.4055L37.5783 20.0367C37.302 19.6085 37.0096 19.374 36.7012 19.3332C36.3959 19.2974 36.015 19.4339 35.5583 19.7427L35.3992 19.4962L39.0817 17.12L39.2408 17.3665Z" fill="#333333"/>
<g clip-path="url(#clip0_843_486)">
<path d="M69 83.025L66.825 81.045C59.1 74.04 54 69.42 54 63.75C54 59.13 57.63 55.5 62.25 55.5C64.86 55.5 67.365 56.715 69 58.635C70.635 56.715 73.14 55.5 75.75 55.5C80.37 55.5 84 59.13 84 63.75C84 69.42 78.9 74.04 71.175 81.06L69 83.025Z" fill="#333333"/>
</g>
<circle cx="69" cy="69" r="68.5" stroke="#333333"/>
<defs>
<clipPath id="clip0_843_486">
<rect width="36" height="36" fill="white" transform="translate(51 51)"/>
</clipPath>
</defs>
</svg>
